<svg width="16" height="16" viewBox="0 0 16 16" fill="none" xmlns="http://www.w3.org/2000/svg">
<circle cx="8" cy="8" r="8" fill="#250953"/>
<path d="M7.87718 3.00189C5.68754 3.06905 4 5.03759 4 7.29673V12.9688C4 13.2749 4.36043 13.4281 4.56876 13.2105L5.08857 12.813C5.22659 12.7055 5.42191 12.727 5.5365 12.8613L6.43236 13.8993C6.56257 14.0336 6.77341 14.0336 6.90362 13.8993L7.74989 12.915C7.88271 12.7593 8.11698 12.7593 8.2499 12.915L9.09638 13.8993C9.22659 14.0336 9.43764 14.0336 9.56764 13.8993L10.4635 12.8613C10.5781 12.727 10.7735 12.7055 10.9114 12.813L11.4312 13.2105C11.6396 13.4281 12 13.275 12 12.9688V7.12479C12.0002 4.80398 10.1439 2.93206 7.87718 3.00189ZM6.66674 7.8123C6.29964 7.8123 6.0188 7.50335 6.0188 7.12457C6.0188 6.74579 6.31839 6.43684 6.66674 6.43684C7.01508 6.43684 7.33342 6.74579 7.33342 7.12457C7.33342 7.50335 7.03341 7.8123 6.66674 7.8123ZM9.33347 7.8123C8.96638 7.8123 8.66679 7.50335 8.66679 7.12457C8.66679 6.74579 8.96638 6.43684 9.33347 6.43684C9.70057 6.43684 10.0002 6.74579 10.0002 7.12457C10.0002 7.50335 9.70015 7.8123 9.33347 7.8123Z" fill="white"/>
</svg>
