<svg width="163" height="42" viewBox="0 0 163 42" fill="none" xmlns="http://www.w3.org/2000/svg">
<path d="M55.403 11.845V32H52.097V18.196L45.949 32H43.658L37.481 18.196V32H34.175V11.845H37.742L44.818 27.65L51.865 11.845H55.403ZM66.6792 32.261C65.1712 32.261 63.8082 31.9227 62.5902 31.246C61.3722 30.55 60.4152 29.5833 59.7192 28.346C59.0232 27.0893 58.6752 25.6393 58.6752 23.996C58.6752 22.372 59.0329 20.9317 59.7482 19.675C60.4636 18.4183 61.4399 17.4517 62.6772 16.775C63.9146 16.0983 65.2969 15.76 66.8242 15.76C68.3516 15.76 69.7339 16.0983 70.9712 16.775C72.2086 17.4517 73.1849 18.4183 73.9002 19.675C74.6156 20.9317 74.9732 22.372 74.9732 23.996C74.9732 25.62 74.6059 27.0603 73.8712 28.317C73.1366 29.5737 72.1312 30.55 70.8552 31.246C69.5986 31.9227 68.2066 32.261 66.6792 32.261ZM66.6792 29.39C67.5299 29.39 68.3226 29.187 69.0572 28.781C69.8112 28.375 70.4202 27.766 70.8842 26.954C71.3482 26.142 71.5802 25.156 71.5802 23.996C71.5802 22.836 71.3579 21.8597 70.9132 21.067C70.4686 20.255 69.8789 19.646 69.1442 19.24C68.4096 18.834 67.6169 18.631 66.7662 18.631C65.9156 18.631 65.1229 18.834 64.3882 19.24C63.6729 19.646 63.1026 20.255 62.6772 21.067C62.2519 21.8597 62.0392 22.836 62.0392 23.996C62.0392 25.7167 62.4742 27.0507 63.3442 27.998C64.2336 28.926 65.3452 29.39 66.6792 29.39ZM86.3034 15.76C87.5601 15.76 88.6814 16.021 89.6674 16.543C90.6727 17.065 91.4557 17.8383 92.0164 18.863C92.5771 19.8877 92.8574 21.125 92.8574 22.575V32H89.5804V23.068C89.5804 21.6373 89.2227 20.545 88.5074 19.791C87.7921 19.0177 86.8157 18.631 85.5784 18.631C84.3411 18.631 83.3551 19.0177 82.6204 19.791C81.9051 20.545 81.5474 21.6373 81.5474 23.068V32H78.2414V16.021H81.5474V17.848C82.0887 17.1907 82.7751 16.6783 83.6064 16.311C84.4571 15.9437 85.3561 15.76 86.3034 15.76ZM102.874 32.261C101.618 32.261 100.487 32.0387 99.4814 31.594C98.4954 31.13 97.7124 30.5113 97.1324 29.738C96.5524 28.9453 96.2431 28.0657 96.2044 27.099H99.6264C99.6844 27.7757 100.003 28.346 100.583 28.81C101.183 29.2547 101.927 29.477 102.816 29.477C103.744 29.477 104.46 29.303 104.962 28.955C105.484 28.5877 105.745 28.1237 105.745 27.563C105.745 26.9637 105.455 26.519 104.875 26.229C104.315 25.939 103.416 25.62 102.178 25.272C100.98 24.9433 100.003 24.6243 99.2494 24.315C98.4954 24.0057 97.8381 23.532 97.2774 22.894C96.7361 22.256 96.4654 21.415 96.4654 20.371C96.4654 19.5203 96.7167 18.747 97.2194 18.051C97.7221 17.3357 98.4374 16.775 99.3654 16.369C100.313 15.963 101.395 15.76 102.613 15.76C104.431 15.76 105.89 16.224 106.992 17.152C108.114 18.0607 108.713 19.3077 108.79 20.893H105.484C105.426 20.1777 105.136 19.6073 104.614 19.182C104.092 18.7567 103.387 18.544 102.497 18.544C101.627 18.544 100.96 18.7083 100.496 19.037C100.032 19.3657 99.8004 19.8007 99.8004 20.342C99.8004 20.7673 99.9551 21.125 100.264 21.415C100.574 21.705 100.951 21.937 101.395 22.111C101.84 22.2657 102.497 22.4687 103.367 22.72C104.527 23.0293 105.475 23.3483 106.209 23.677C106.963 23.9863 107.611 24.4503 108.152 25.069C108.694 25.6877 108.974 26.5093 108.993 27.534C108.993 28.4427 108.742 29.2547 108.239 29.97C107.737 30.6853 107.021 31.246 106.093 31.652C105.185 32.058 104.112 32.261 102.874 32.261ZM115.872 18.399C116.432 17.6257 117.196 16.9973 118.163 16.514C119.149 16.0113 120.241 15.76 121.44 15.76C122.851 15.76 124.127 16.0983 125.268 16.775C126.408 17.4517 127.307 18.4183 127.965 19.675C128.622 20.9123 128.951 22.3333 128.951 23.938C128.951 25.5427 128.622 26.983 127.965 28.259C127.307 29.5157 126.399 30.5017 125.239 31.217C124.098 31.913 122.832 32.261 121.44 32.261C120.202 32.261 119.1 32.0193 118.134 31.536C117.186 31.0527 116.432 30.434 115.872 29.68V32H112.566V10.54H115.872V18.399ZM125.587 23.938C125.587 22.836 125.355 21.8887 124.891 21.096C124.446 20.284 123.847 19.675 123.093 19.269C122.358 18.8437 121.565 18.631 120.715 18.631C119.883 18.631 119.091 18.8437 118.337 19.269C117.602 19.6943 117.003 20.313 116.539 21.125C116.094 21.937 115.872 22.894 115.872 23.996C115.872 25.098 116.094 26.0647 116.539 26.896C117.003 27.708 117.602 28.3267 118.337 28.752C119.091 29.1773 119.883 29.39 120.715 29.39C121.565 29.39 122.358 29.1773 123.093 28.752C123.847 28.3073 124.446 27.6693 124.891 26.838C125.355 26.0067 125.587 25.04 125.587 23.938ZM135.526 10.54V32H132.22V10.54H135.526ZM154.337 16.021V32H151.031V30.115C150.509 30.7723 149.823 31.2943 148.972 31.681C148.141 32.0483 147.252 32.232 146.304 32.232C145.048 32.232 143.917 31.971 142.911 31.449C141.925 30.927 141.142 30.1537 140.562 29.129C140.002 28.1043 139.721 26.867 139.721 25.417V16.021H142.998V24.924C142.998 26.3547 143.356 27.4567 144.071 28.23C144.787 28.984 145.763 29.361 147 29.361C148.238 29.361 149.214 28.984 149.929 28.23C150.664 27.4567 151.031 26.3547 151.031 24.924V16.021H154.337Z" fill="#151219"/>
<path d="M13.0855 0.00619276C5.69546 0.225995 0 6.66848 0 14.062V32.625C0 33.627 1.21644 34.1284 1.91958 33.4161L3.67392 32.1153C4.13976 31.7636 4.79895 31.8339 5.18568 32.2735L8.2092 35.6703C8.64866 36.1099 9.36024 36.1099 9.79971 35.6703L12.6559 32.4492C13.1041 31.9394 13.8948 31.9394 14.3434 32.4492L17.2003 35.6703C17.6398 36.1099 18.352 36.1099 18.7908 35.6703L21.8143 32.2735C22.201 31.8339 22.8606 31.7636 23.3261 32.1153L25.0804 33.4161C25.7836 34.1284 27 33.6272 27 32.625V13.4993C27.0007 5.90394 20.7357 -0.222343 13.0855 0.00619276ZM9.00023 15.7494C7.7613 15.7494 6.81346 14.7382 6.81346 13.4986C6.81346 12.259 7.82458 11.2478 9.00023 11.2478C10.1759 11.2478 11.2503 12.259 11.2503 13.4986C11.2503 14.7382 10.2378 15.7494 9.00023 15.7494ZM18.0005 15.7494C16.7615 15.7494 15.7504 14.7382 15.7504 13.4986C15.7504 12.259 16.7615 11.2478 18.0005 11.2478C19.2394 11.2478 20.2505 12.259 20.2505 13.4986C20.2505 14.7382 19.238 15.7494 18.0005 15.7494Z" fill="#250953"/>
</svg>
